<?xml version="1.0" standalone="no"?><svg xmlns="http://www.w3.org/2000/svg" viewBox="0 0 1440 320"><path fill="#5000ca" fill-opacity="1" d="M0,32L18.5,48C36.9,64,74,96,111,133.3C147.7,171,185,213,222,192C258.5,171,295,85,332,85.3C369.2,85,406,171,443,170.7C480,171,517,85,554,64C590.8,43,628,85,665,117.3C701.5,149,738,171,775,154.7C812.3,139,849,85,886,80C923.1,75,960,117,997,122.7C1033.8,128,1071,96,1108,90.7C1144.6,85,1182,107,1218,122.7C1255.4,139,1292,149,1329,138.7C1366.2,128,1403,96,1422,80L1440,64L1440,320L1421.5,320C1403.1,320,1366,320,1329,320C1292.3,320,1255,320,1218,320C1181.5,320,1145,320,1108,320C1070.8,320,1034,320,997,320C960,320,923,320,886,320C849.2,320,812,320,775,320C738.5,320,702,320,665,320C627.7,320,591,320,554,320C516.9,320,480,320,443,320C406.2,320,369,320,332,320C295.4,320,258,320,222,320C184.6,320,148,320,111,320C73.8,320,37,320,18,320L0,320Z"></path></svg>